# xmcd
#
# Track frame offsets:
# 150
# 17190
# 34507
# 50725
# 66071
# 84612
# 104743
# 126798
# 141288
# 163107
# 184723
# 203051
#
# Disc length: 2959 seconds
#
# Revision: 1
# Processed by: cddbd v1.5.2PL0 Copyright (c) Steve Scherf et al.
# Submitted via: CedeCatalogueitor 2.6.0.6 http://personales.ya.com/cdcatalogueitor
#
DISCID=ab0b8d0c
DTITLE=Varios Artistas - The Pop Files
DYEAR=1900
DGENRE=
TTITLE0=Farwerk: Gold
TTITLE1=Custow Drummer Meets Miss Impossible: Subilat Theme
TTITLE2=Martin Rev: Reading My Mind
TTITLE3=Aavikko: Seikkailu Villi
TTITLE4=[drekka]: Vocal 1
TTITLE5=Brandy Ifgray: Bones
TTITLE6=Mäkkelä's Trash Lounge: Stalker
TTITLE7=Jasper Pattison: Later
TTITLE8=Chainswoker: Red Eyeliner
TTITLE9=Buther Boy: Who Thought Of Mercy
TTITLE10=Meanwhile Back In Communist Russia: New Adventures
TTITLE11=Gaffers: The Surf Was Gone
EXTD=
EXTT0=
EXTT1=
EXTT2=
EXTT3=
EXTT4=
EXTT5=
EXTT6=
EXTT7=
EXTT8=
EXTT9=
EXTT10=
EXTT11=
PLAYORDER=
